<svg id="visual" viewBox="0 0 300 50" width="300" height="50" xmlns="http://www.w3.org/2000/svg" xmlns:xlink="http://www.w3.org/1999/xlink" version="1.1"><path d="M0 31L7.2 31C14.3 31 28.7 31 43 31.3C57.3 31.7 71.7 32.3 86 31.2C100.3 30 114.7 27 128.8 25.5C143 24 157 24 171.2 26.2C185.3 28.3 199.7 32.7 214 35.3C228.3 38 242.7 39 257 38.5C271.3 38 285.7 36 292.8 35L300 34L300 0L292.8 0C285.7 0 271.3 0 257 0C242.7 0 228.3 0 214 0C199.7 0 185.3 0 171.2 0C157 0 143 0 128.8 0C114.7 0 100.3 0 86 0C71.7 0 57.3 0 43 0C28.7 0 14.3 0 7.2 0L0 0Z" fill="#ccd5ae"></path><path d="M0 31L7.2 30.5C14.3 30 28.7 29 43 27.8C57.3 26.7 71.7 25.3 86 23.8C100.3 22.3 114.7 20.7 128.8 21.2C143 21.7 157 24.3 171.2 24.7C185.3 25 199.7 23 214 23.2C228.3 23.3 242.7 25.7 257 27.5C271.3 29.3 285.7 30.7 292.8 31.3L300 32L300 0L292.8 0C285.7 0 271.3 0 257 0C242.7 0 228.3 0 214 0C199.7 0 185.3 0 171.2 0C157 0 143 0 128.8 0C114.7 0 100.3 0 86 0C71.7 0 57.3 0 43 0C28.7 0 14.3 0 7.2 0L0 0Z" fill="#ccca9c"></path><path d="M0 15L7.2 16.5C14.3 18 28.7 21 43 21C57.3 21 71.7 18 86 17.3C100.3 16.7 114.7 18.3 128.8 18.8C143 19.3 157 18.7 171.2 17.8C185.3 17 199.7 16 214 16.3C228.3 16.7 242.7 18.3 257 19.3C271.3 20.3 285.7 20.7 292.8 20.8L300 21L300 0L292.8 0C285.7 0 271.3 0 257 0C242.7 0 228.3 0 214 0C199.7 0 185.3 0 171.2 0C157 0 143 0 128.8 0C114.7 0 100.3 0 86 0C71.7 0 57.3 0 43 0C28.7 0 14.3 0 7.2 0L0 0Z" fill="#cebe8c"></path><path d="M0 14L7.2 14C14.3 14 28.7 14 43 14C57.3 14 71.7 14 86 13.3C100.3 12.7 114.7 11.3 128.8 11.5C143 11.7 157 13.3 171.2 14C185.3 14.7 199.7 14.3 214 15C228.3 15.7 242.7 17.3 257 18C271.3 18.7 285.7 18.3 292.8 18.2L300 18L300 0L292.8 0C285.7 0 271.3 0 257 0C242.7 0 228.3 0 214 0C199.7 0 185.3 0 171.2 0C157 0 143 0 128.8 0C114.7 0 100.3 0 86 0C71.7 0 57.3 0 43 0C28.7 0 14.3 0 7.2 0L0 0Z" fill="#d1b17e"></path><path d="M0 4L7.2 4.5C14.3 5 28.7 6 43 6.2C57.3 6.3 71.7 5.7 86 5.3C100.3 5 114.7 5 128.8 5.2C143 5.3 157 5.7 171.2 5.7C185.3 5.7 199.7 5.3 214 6C228.3 6.7 242.7 8.3 257 8.2C271.3 8 285.7 6 292.8 5L300 4L300 0L292.8 0C285.7 0 271.3 0 257 0C242.7 0 228.3 0 214 0C199.7 0 185.3 0 171.2 0C157 0 143 0 128.8 0C114.7 0 100.3 0 86 0C71.7 0 57.3 0 43 0C28.7 0 14.3 0 7.2 0L0 0Z" fill="#d4a373"></path></svg>